<svg xmlns="http://www.w3.org/2000/svg" data-name="Layer 1" fill="#FAFAFA" viewBox="0 0 128 160" x="0px" y="0px"><title>miscellaneous 37 solid</title>
<path fill="#FAFAFA" d="M90,16a4,4,0,0,0,4-4V2a2,2,0,0,0-2-2H36a2,2,0,0,0-2,2V12a4,4,0,0,0,4,4ZM38,4H90v6a2,2,0,0,1-2,2H40a2,2,0,0,1-2-2Z"/>
<path fill="#FAFAFA" d="M44.74,89c0-1.19.93-2.36,3.41-2.36a6.19,6.19,0,0,1,4.18,1.58,2,2,0,0,0,1.29.66,1.6,1.6,0,0,0,1.61-1.58,1.73,1.73,0,0,0-.3-1,7.66,7.66,0,0,0-5.38-2.69V81.93a1.39,1.39,0,1,0-2.78,0v1.7C43,84,41.28,86.35,41.28,89c0,7.2,10.9,5.2,10.9,9.56,0,1.85-1.31,2.75-4,2.75A6.86,6.86,0,0,1,43.25,99a1.75,1.75,0,0,0-1.31-.66,1.61,1.61,0,0,0-1.35,2.45,8.6,8.6,0,0,0,6.18,3.56v1.67a1.39,1.39,0,1,0,2.78,0V104.4c4-.39,6.1-2.54,6.1-5.83C55.65,91.1,44.74,92.92,44.74,89Z"/>
<path fill="#FAFAFA" d="M110.68,127.18A2,2,0,0,0,111,126V4a4,4,0,0,0-4-4H97.65A6,6,0,0,1,98,2V12a8,8,0,0,1-8,8H38a8,8,0,0,1-8-8V2a6,6,0,0,1,.35-2H21a4,4,0,0,0-4,4V126a2.1,2.1,0,0,0,.31,1.15,2,2,0,0,0,1.69.92,2,2,0,0,0,1.08-.32l10.18-6.51,10.17,6.51a2,2,0,0,0,2.16,0l10.17-6.51,10.17,6.51a2,2,0,0,0,2.16,0l10.17-6.5,10.16,6.5a2,2,0,0,0,2.16,0l10.17-6.5,10.17,6.5A2,2,0,0,0,110.68,127.18ZM45,26H97a2,2,0,0,1,0,4H45a2,2,0,0,1,0-4Zm0,10H97a2,2,0,0,1,0,4H45a2,2,0,0,1,0-4Zm0,10H97a2,2,0,0,1,0,4H45a2,2,0,0,1,0-4Zm0,10H97a2,2,0,0,1,0,4H45a2,2,0,0,1,0-4Zm0,10H97a2,2,0,0,1,0,4H45a2,2,0,0,1,0-4ZM29,26h8a2,2,0,0,1,0,4H29a2,2,0,0,1,0-4Zm0,10h8a2,2,0,0,1,0,4H29a2,2,0,0,1,0-4Zm0,10h8a2,2,0,0,1,0,4H29a2,2,0,0,1,0-4Zm0,10h8a2,2,0,0,1,0,4H29a2,2,0,0,1,0-4ZM27,68a2,2,0,0,1,2-2h8a2,2,0,0,1,0,4H29A2,2,0,0,1,27,68Zm21,46A20,20,0,1,1,68,94,20,20,0,0,1,48,114Zm50-10H74a2,2,0,0,1,0-4H98a2,2,0,0,1,0,4Zm0-16H74a2,2,0,0,1,0-4H98a2,2,0,0,1,0,4Z"/>
</svg>