<svg xmlns="http://www.w3.org/2000/svg" width="87.099" height="75.598" viewBox="0 0 87.099 75.598">
  <g id="carrito-de-compras" transform="translate(0.51 -12.543)">
    <path id="Path_32" data-name="Path 32" d="M85.541,27.306a2.847,2.847,0,0,0-2.231-1.043H21.173a2.912,2.912,0,0,0-.356.021L18.259,19.5a2.651,2.651,0,0,0-1.6-1.532L3.773,13.317A2.847,2.847,0,0,0,.192,14.752a2.48,2.48,0,0,0,1.56,3.293l11.705,4.229L27.784,60.253a2.21,2.21,0,0,0-1.412,1.273L22.23,72.109a1.972,1.972,0,0,0,.283,1.934,2.367,2.367,0,0,0,1.882.9h2.127a7.246,7.246,0,0,0-2.127,5.08c0,4.2,3.717,7.619,8.285,7.619s8.285-3.418,8.285-7.619a7.246,7.246,0,0,0-2.127-5.08H56.9a7.244,7.244,0,0,0-2.128,5.08c0,4.2,3.716,7.619,8.285,7.619s8.285-3.418,8.285-7.619a7.246,7.246,0,0,0-2.127-5.08H71.8a2.124,2.124,0,1,0,0-4.233H27.669l2.566-6.554a2.941,2.941,0,0,0,1.064.2H71.8A2.747,2.747,0,0,0,74.432,62.6L85.939,29.578A2.373,2.373,0,0,0,85.541,27.306ZM32.68,83.408a3.4,3.4,0,1,1,3.682-3.386A3.547,3.547,0,0,1,32.68,83.408Zm30.378,0a3.4,3.4,0,1,1,3.682-3.386A3.547,3.547,0,0,1,63.058,83.408ZM77.534,37.057H63.441V31.342H79.525ZM73.476,48.7H63.441V42.136H75.763Zm-28.293,0V42.136H57.918V48.7Zm12.735,5.08v5.5H45.183v-5.5ZM26.8,42.136H39.66V48.7H29.272Zm18.387-5.079V31.342H57.918v5.714ZM39.66,31.342v5.714H24.88l-2.156-5.714ZM31.188,53.777H39.66v5.5h-6.4Zm32.253,5.5v-5.5h8.265l-1.918,5.5Z" transform="translate(0)" fill="#fff" stroke="#be2c2c" stroke-width="1"/>
  </g>
</svg>
