<svg xmlns="http://www.w3.org/2000/svg" width="56.644" height="32.048" viewBox="0 0 56.644 32.048">
  <g id="carrito-de-compras-flecha" transform="translate(-0.239 0)">
    <path id="Path_32" data-name="Path 32" d="M37.8,19.234a1.272,1.272,0,0,0-.986-.449H9.356a1.322,1.322,0,0,0-.157.009l-1.13-2.916a1.158,1.158,0,0,0-.707-.659l-5.7-2a1.272,1.272,0,0,0-1.582.617,1.06,1.06,0,0,0,.689,1.417L5.947,17.07l6.331,16.338a.968.968,0,0,0-.624.548L9.823,38.507a.83.83,0,0,0,.125.832,1.057,1.057,0,0,0,.832.387h.94a3.076,3.076,0,0,0-.94,2.185,3.489,3.489,0,0,0,3.661,3.278A3.489,3.489,0,0,0,18.1,41.911a3.076,3.076,0,0,0-.94-2.185h7.982a3.076,3.076,0,0,0-.94,2.185,3.489,3.489,0,0,0,3.661,3.278,3.489,3.489,0,0,0,3.661-3.278,3.077,3.077,0,0,0-.94-2.185H31.73a.916.916,0,1,0,0-1.821h-19.5l1.134-2.819a1.331,1.331,0,0,0,.47.088h17.9a1.214,1.214,0,0,0,1.162-.759l5.085-14.2A1,1,0,0,0,37.8,19.234ZM14.441,43.368a1.466,1.466,0,1,1,0-2.913,1.466,1.466,0,1,1,0,2.913Zm13.424,0a1.466,1.466,0,1,1,1.627-1.457A1.551,1.551,0,0,1,27.866,43.368Zm6.4-19.939H28.035V20.971h7.108Zm-1.793,5.007H28.035V25.614H33.48Zm-12.5,0V25.614h5.628v2.822Zm5.628,2.185v2.367H19.967V30.622ZM11.841,25.614h5.685v2.822H12.935Zm8.125-2.185V20.971h5.628v2.458Zm-2.441-2.458v2.458H10.994l-.953-2.458Zm-3.744,9.651h3.744v2.367H14.7Zm14.253,2.367V30.622h3.652l-.847,2.367Z" transform="translate(18.848 -13.141)" fill="#fff"/>
    <path id="Polygon_1" data-name="Polygon 1" d="M11.5,0,23,13H0Z" transform="translate(21.239 5.055) rotate(90)" fill="#fff"/>
    <rect id="Rectangle_44" data-name="Rectangle 44" width="13" height="13" transform="translate(0.239 10.055)" fill="#fff"/>
  </g>
</svg>
