<svg xmlns="http://www.w3.org/2000/svg" xmlns:xlink="http://www.w3.org/1999/xlink" fill="#FAFAFA" version="1.1" x="0px" y="0px" viewBox="0 0 100 125" enable-background="new 0 0 100 100" xml:space="preserve">
<path d="M70,34.5c-1.103,0.001-2,0.898-2,2v20c0.001,1.103,0.898,2,2,2c0.534,0,1.037-0.208,1.415-0.586  c0.378-0.377,0.586-0.88,0.586-1.414L72,36.5C72,35.398,71.103,34.501,70,34.5z"/>
<path d="M70.062,29C66.162,29,63,32.162,63,36.062v18.875c0,2.387,1.188,4.493,3,5.771V85  c0,2.209,1.791,4,4,4s4-1.791,4-4V60.8c1.884-1.268,3.124-3.42,3.124-5.862V36.062C77.124,32.162,73.962,29,70.062,29z   M72.122,58.622C71.556,59.188,70.802,59.5,70,59.5c-1.653,0-2.999-1.346-3-3v-20c0-1.653,1.346-2.999,2.999-3  c1.655,0.001,3.001,1.347,3.001,3l0.001,20C73.002,57.302,72.689,58.056,72.122,58.622z"/>
<circle cx="68" cy="20" r="8"/>
<g><path d="M54,42H41.148l6.062,6.802c0.534,0.598,0.802,1.368,0.756,2.167s-0.401,1.534-1,2.067c-0.55,0.49-1.259,0.761-1.995,0.761   c0,0,0,0,0,0c-0.855,0-1.672-0.366-2.241-1.004L38,47.486V53c0,1.105,0.896,2,2,2h14c1.104,0,2-0.895,2-2v-9   C56,42.896,55.104,42,54,42z"/></g>
<path d="M31.663,33.867c-0.491,0-0.963,0.18-1.33,0.507c-0.823,0.734-0.896,2.001-0.162,2.824l13.306,14.93  c0.379,0.426,0.924,0.67,1.495,0.67h0c0.49,0,0.962-0.181,1.33-0.507c0.399-0.355,0.636-0.846,0.666-1.378  c0.031-0.533-0.148-1.046-0.503-1.445L33.156,34.536C32.777,34.111,32.233,33.867,31.663,33.867z"/>
<path d="M29.424,37.863c-1.1-1.234-0.991-3.135,0.243-4.236c1.19-1.059,3.178-0.944,4.236,0.244l3.221,3.614v-1.423  c0-3.9-3.162-7.062-7.062-7.062C26.162,29,23,32.162,23,36.062v18.875c0,2.387,1.188,4.493,3,5.771V85c0,2.209,1.791,4,4,4  s4-1.791,4-4V60.8c1.884-1.268,3.124-3.42,3.124-5.862v-8.435L29.424,37.863z"/>
<circle cx="30" cy="20" r="8"/>
</svg>