<?xml version="1.0" standalone="no"?>
<!DOCTYPE svg PUBLIC "-//W3C//DTD SVG 20010904//EN"
 "http://www.w3.org/TR/2001/REC-SVG-20010904/DTD/svg10.dtd">
<svg version="1.0" xmlns="http://www.w3.org/2000/svg"
 width="1280.000000pt" height="1280.000000pt" viewBox="0 0 1280.000000 1280.000000"
 preserveAspectRatio="xMidYMid meet">
<metadata>
Created by potrace 1.15, written by Peter Selinger 2001-2017
</metadata>
<g transform="translate(0.000000,1280.000000) scale(0.100000,-0.100000)"
fill="#FAFAFA" stroke="none">
<path d="M5933 11998 l-203 -203 -2 -309 -3 -309 -130 -24 c-584 -105 -1082
-311 -1490 -617 -132 -100 -593 -545 -744 -721 -307 -356 -488 -766 -558
-1266 -21 -155 -24 -566 -4 -709 37 -270 96 -472 200 -685 252 -515 699 -924
1344 -1230 324 -154 824 -314 1310 -420 l77 -17 0 -1140 0 -1139 -22 6 c-65
19 -294 142 -369 199 -296 223 -490 570 -559 996 -12 74 -27 167 -33 205 l-12
70 -900 3 -900 2 -199 -199 -200 -200 17 -168 c22 -222 49 -381 102 -588 176
-693 564 -1244 1140 -1620 489 -319 1023 -500 1751 -595 85 -11 162 -20 170
-20 12 0 14 -65 14 -438 0 -458 0 -462 43 -462 10 0 30 -9 44 -20 25 -19 41
-20 404 -20 244 0 388 4 406 11 41 15 352 326 374 374 17 36 19 68 19 302 0
291 -1 287 68 298 645 104 1137 297 1609 632 284 200 690 606 889 888 263 371
418 765 486 1240 20 138 16 645 -5 810 -54 401 -157 703 -335 975 -414 634
-1163 1027 -2507 1314 -94 20 -178 39 -188 42 -16 5 -17 60 -15 1012 l3 1007
27 3 c55 6 195 -86 304 -200 156 -165 264 -409 304 -688 14 -93 22 -110 53
-110 11 0 29 -8 40 -17 18 -17 75 -18 851 -21 457 -2 847 0 866 3 27 5 67 39
198 168 90 89 173 175 184 190 27 38 25 104 -7 310 -136 873 -561 1492 -1295
1890 -346 187 -843 334 -1330 392 -74 8 -149 18 -167 21 l-32 5 -5 432 c-4
430 -9 521 -28 545 -8 9 -107 12 -432 12 l-421 0 -202 -202z m-203 -3513 l0
-905 -27 11 c-14 5 -67 31 -117 57 -286 147 -482 391 -542 675 -27 131 -18
396 21 564 56 243 146 342 385 428 72 25 241 73 268 74 9 1 12 -186 12 -904z
m1434 -3361 c237 -95 384 -194 491 -334 147 -192 202 -404 192 -750 -7 -267
-46 -453 -134 -638 -40 -85 -63 -103 -206 -162 -135 -55 -390 -120 -471 -120
l-21 0 2 1007 c2 555 5 1014 8 1021 7 20 42 14 139 -24z"/>
</g>
</svg>
