<?xml version="1.0" encoding="utf-8"?>
<!-- Svg Vector Icons : http://www.onlinewebfonts.com/icon -->
<!DOCTYPE svg PUBLIC "-//W3C//DTD SVG 1.1//EN" "http://www.w3.org/Graphics/SVG/1.1/DTD/svg11.dtd">
<svg version="1.1" xmlns="http://www.w3.org/2000/svg" xmlns:xlink="http://www.w3.org/1999/xlink" fill="#FAFAFA" x="0px" y="0px" viewBox="0 0 1000 1000" enable-background="new 0 0 1000 1000" xml:space="preserve">
<metadata> Svg Vector Icons : http://www.onlinewebfonts.com/icon </metadata>
<g><path d="M558.3,620.3L990,188.6L811.5,8.4L379,440.9L558.3,620.3z"/><path d="M257.9,743.4l242-57.3L315,501.2L257.9,743.4z"/><path d="M809.5,798.5c0,38.1-30.9,69-69,69H202.7c-38.1,0-69-30.9-69-69V260.7c0-38.1,30.9-69,69-69h298.4L623.2,69.6h-494C63.4,69.6,10,123,10,188.8v683.6c0,65.8,53.4,119.2,119.2,119.2h683.6c65.8,0,119.2-53.4,119.2-119.2v-495L809.5,498.7V798.5z"/></g>
</svg>