<?xml version="1.0" encoding="utf-8"?>
<!DOCTYPE svg PUBLIC "-//W3C//DTD SVG 1.1//EN" "http://www.w3.org/Graphics/SVG/1.1/DTD/svg11.dtd">
<svg version="1.1" xmlns="http://www.w3.org/2000/svg" xmlns:xlink="http://www.w3.org/1999/xlink" x="0px" y="0px" viewBox="0 0 1000 1000"  fill="#FAFAFA" xml:space="preserve">
<g><g transform="translate(0.000000,512.000000) scale(0.100000,-0.100000)"><path d="M4801,5000.1c-281.8-93.9-454.3-289.4-508-569.3c-26.8-138-26.8-3331.6,0-3471.5c118.9-621.1,925.9-795.5,1274.8-276c130.3,197.4,126.5,116.9,120.8,2062.6l-5.7,1752l-63.3,128.4c-72.8,147.6-193.6,266.5-345.1,335.5C5149.9,5019.2,4918,5038.4,4801,5000.1z"/><path d="M6903.9,3556.6c-256.9-69-473.5-279.9-552.1-540.6c-42.2-132.3-36.4-348.9,9.6-488.8c55.6-166.8,155.3-285.6,368-448.6c598.1-452.4,993-1083,1142.5-1817.2c47.9-239.6,47.9-828.1,0-1069.6c-193.6-962.3-847.3-1775-1734.8-2148.9c-379.5-159.1-715-224.3-1150.2-224.3c-1378.3,1.9-2547.6,958.5-2844.7,2327.1c-61.3,283.7-61.3,874.1,0,1155.9c51.8,241.5,155.3,542.5,253,736.1c187.9,371.9,521.4,768.7,874.1,1037.1c203.2,155.3,297.1,277.9,354.6,456.2c222.4,720.8-582.7,1316.9-1211.5,897.1c-180.2-120.8-364.2-276-580.8-488.8C1229.8,2345.1,819.6,1620.6,614.5,798.2C325.1-365.4,534-1649.7,1174.2-2665.7c339.3-536.7,801.3-1012.1,1316.9-1355.3c571.2-381.5,1182.7-617.2,1878.6-724.6c304.8-46,960.4-46,1265.2,0c1506.7,232,2756.5,1142.5,3421.7,2493.9c220.4,448.6,364.2,931.6,433.2,1449.2c34.5,268.4,30.7,845.4-9.6,1121.4c-111.2,784-398.7,1489.4-866.4,2120.1c-264.6,358.4-878,931.6-1138.7,1062C7306.4,3587.3,7091.7,3608.4,6903.9,3556.6z"/></g></g>
</svg>