<?xml version="1.0" encoding="utf-8"?>
<!-- Svg Vector Icons : http://www.onlinewebfonts.com/icon -->
<!DOCTYPE svg PUBLIC "-//W3C//DTD SVG 1.1//EN" "http://www.w3.org/Graphics/SVG/1.1/DTD/svg11.dtd">
<svg fill="#FAFAFA" version="1.1" xmlns="http://www.w3.org/2000/svg" xmlns:xlink="http://www.w3.org/1999/xlink" x="0px" y="0px" viewBox="0 0 1000 1000" enable-background="new 0 0 1000 1000" xml:space="preserve">
<metadata> Svg Vector Icons : http://www.onlinewebfonts.com/icon </metadata>
<g><g transform="translate(0.000000,511.000000) scale(0.100000,-0.100000)"><path d="M2697,3225.9c-330.4-73.2-555.9-261.1-789.3-652.8c-79.1-130.6-140.5-239.4-136.5-243.3c2-2,81.1,15.8,174.1,43.5c662.7,191.9,1485.7,33.6,2047.5-393.7l142.4-108.8v324.4c0,423.3-23.7,492.6-225.5,696.4c-152.3,152.3-334.3,255.2-555.9,314.5C3187.6,3251.6,2849.3,3261.5,2697,3225.9z"/><path d="M6746.6,3225.9c-275-55.4-506.4-180-680.5-368c-166.2-178.1-189.9-263.1-189.9-662.7v-324.4l144.4,108.8c559.9,427.3,1380.8,585.6,2045.6,393.7c93-27.7,172.1-45.5,174.1-43.5c4,3.9-57.4,112.8-136.5,243.3c-235.4,395.7-462.9,581.6-797.3,652.8C7144.2,3261.5,6920.7,3261.5,6746.6,3225.9z"/><path d="M2093.6,2234.8c-312.6-55.4-589.5-201.8-771.5-403.6c-195.8-217.6-514.4-775.5-860.6-1507.5C348.7,82.4,234-178.7,208.3-255.9c-286.9-850.7,9.9-1804.2,728-2346.3c856.6-646.9,2047.5-555.9,2783.5,213.7c298.7,308.6,480.7,648.9,559.9,1042.6l25.7,118.7l61.3-108.8c77.2-136.5,176.1-223.6,342.2-302.7c110.8-51.4,150.4-59.4,296.7-59.4c146.4,0,186,7.9,296.8,59.4c166.2,79.1,265.1,166.2,342.2,302.7l61.3,108.8l25.7-118.7c49.5-251.3,182-565.8,324.4-773.5c176.1-255.2,532.2-559.9,819-704.3c292.8-144.4,670.7-221.6,1018.8-205.8c929.8,43.5,1707.3,676.6,1952.6,1590.6c47.5,172.1,53.4,229.5,53.4,520.3c0,431.3-35.6,563.8-304.7,1141.5c-344.2,743.8-700.3,1378.9-896.2,1598.5c-379.8,427.3-1084.1,555.9-1843.8,336.3c-512.4-148.4-971.3-455-1101.9-735.9c-23.7-51.4-47.5-98.9-49.5-102.9c-2-4-41.5,25.7-87,65.3c-286.9,245.3-935.7,245.3-1222.6,0c-45.5-39.6-85.1-69.2-87-65.3c-2,4-25.7,51.4-49.5,102.9C4010.6,1951.9,2877,2377.2,2093.6,2234.8z M2564.4,476.1c182-45.5,462.9-195.8,601.4-320.5c314.5-284.9,480.7-652.8,482.7-1064.3c0-435.2-144.4-767.6-468.8-1072.2c-253.2-233.4-544-356.1-894.2-375.9C1486.3-2400.4,815.6-1795,776.1-995.8c-11.9,267.1,27.7,457,144.4,700.3C1219.2,321.8,1903.7,642.3,2564.4,476.1z M8157.1,474.1c277-69.2,561.8-251.2,751.8-478.7C9031.5-151,9168-432,9211.5-629.8c23.7-116.7,29.7-209.7,23.7-366c-17.8-362-154.3-672.6-409.5-931.8c-457-464.9-1123.7-565.8-1713.2-261.1c-164.2,87.1-459,370-557.9,538.1c-201.8,344.2-251.3,809.1-124.6,1175.1c144.4,425.3,474.8,761.6,894.2,914C7565.6,527.5,7898,541.4,8157.1,474.1z M5116.5-572.4c298.7-87.1,389.7-455,168.2-670.7c-288.9-282.9-767.6-5.9-666.7,385.8c33.6,128.6,144.4,245.3,269.1,284.9C5001.7-536.8,5001.7-536.8,5116.5-572.4z"/><path d="M1235-877.1c-85.1-37.6-126.6-116.7-126.6-247.3c0-468.8,354.1-872.4,828.9-943.6c245.3-37.6,377.9,33.6,377.9,203.8c0,124.6-73.2,184-247.3,201.8c-332.4,33.6-512.4,213.7-544,540.1c-11.9,118.7-23.7,158.3-63.3,195.8C1407.1-873.1,1300.3-849.4,1235-877.1z"/><path d="M6794.1-896.9c-116.7-71.2-134.5-275-45.5-534.2c77.2-223.5,271-443.1,478.8-544c104.8-51.4,334.3-110.8,435.2-110.8c211.7,0,322.5,219.6,180,362c-37.6,37.6-77.2,51.4-189.9,61.3c-178,17.8-288.8,69.2-391.7,182c-98.9,108.8-134.5,186-150.3,338.3c-15.8,154.3-39.6,209.7-104.9,249.3C6930.6-849.4,6869.2-851.3,6794.1-896.9z"/></g></g>
</svg>