<svg xmlns="http://www.w3.org/2000/svg" enable-background="new 0 0 64 64" viewBox="0 0 64 64"><path fill="#FAFAFA" d="M63,28.3L36.7,1.9C35.4,0.7,33.8,0,32,0s-3.4,0.7-4.7,1.9L1,28.3c-0.4,0.4-0.7,1-0.7,1.6s0.2,1.2,0.7,1.6
		c0.8,0.8,2.3,0.8,3.2,0L30.5,5.1c0.4-0.4,1-0.6,1.5-0.6c0.6,0,1.1,0.2,1.5,0.6l26.4,26.3c0.8,0.8,2.3,0.8,3.2,0
		c0.4-0.4,0.7-1,0.7-1.6C63.7,29.3,63.5,28.7,63,28.3z M45.7,49L33.4,36.7c-0.9-0.9-1.3-2.2-1.2-3.5c0.3-2.3-0.5-4.6-2.1-6.3
		c-1.3-1.3-3-2.1-4.8-2.2l1.2,1.2c2.2,2.2,2.2,5.9,0,8.1c-1.1,1.1-2.5,1.7-4.1,1.7c-1.5,0-3-0.6-4-1.7l-1.2-1.2
		c0.1,1.8,0.9,3.5,2.2,4.8c1.7,1.7,4,2.5,6.3,2.1c0.2,0,0.4,0,0.5,0c1.1,0,2.2,0.4,2.9,1.2l12.5,12.5c1.2,1.2,3.2,1.1,4.3-0.1
		C47,52.1,46.9,50.2,45.7,49z M44.2,51.7C44,51.9,43.7,52,43.4,52s-0.5-0.1-0.7-0.3l-0.9-0.9c-0.4-0.4-0.4-1.1,0-1.5s1.1-0.4,1.5,0
		l0.9,0.9C44.6,50.6,44.6,51.3,44.2,51.7z M45.7,49L33.4,36.7c-0.9-0.9-1.3-2.2-1.2-3.5c0.3-2.3-0.5-4.6-2.1-6.3
		c-1.3-1.3-3-2.1-4.8-2.2l1.2,1.2c2.2,2.2,2.2,5.9,0,8.1c-1.1,1.1-2.5,1.7-4.1,1.7c-1.5,0-3-0.6-4-1.7l-1.2-1.2
		c0.1,1.8,0.9,3.5,2.2,4.8c1.7,1.7,4,2.5,6.3,2.1c0.2,0,0.4,0,0.5,0c1.1,0,2.2,0.4,2.9,1.2l12.5,12.5c1.2,1.2,3.2,1.1,4.3-0.1
		C47,52.1,46.9,50.2,45.7,49z M44.2,51.7C44,51.9,43.7,52,43.4,52s-0.5-0.1-0.7-0.3l-0.9-0.9c-0.4-0.4-0.4-1.1,0-1.5s1.1-0.4,1.5,0
		l0.9,0.9C44.6,50.6,44.6,51.3,44.2,51.7z M45.7,49L33.4,36.7c-0.9-0.9-1.3-2.2-1.2-3.5c0.3-2.3-0.5-4.6-2.1-6.3
		c-1.3-1.3-3-2.1-4.8-2.2l1.2,1.2c2.2,2.2,2.2,5.9,0,8.1c-1.1,1.1-2.5,1.7-4.1,1.7c-1.5,0-3-0.6-4-1.7l-1.2-1.2
		c0.1,1.8,0.9,3.5,2.2,4.8c1.7,1.7,4,2.5,6.3,2.1c0.2,0,0.4,0,0.5,0c1.1,0,2.2,0.4,2.9,1.2l12.5,12.5c1.2,1.2,3.2,1.1,4.3-0.1
		C47,52.1,46.9,50.2,45.7,49z M44.2,51.7C44,51.9,43.7,52,43.4,52s-0.5-0.1-0.7-0.3l-0.9-0.9c-0.4-0.4-0.4-1.1,0-1.5s1.1-0.4,1.5,0
		l0.9,0.9C44.6,50.6,44.6,51.3,44.2,51.7z M45.7,49L33.4,36.7c-0.9-0.9-1.3-2.2-1.2-3.5c0.3-2.3-0.5-4.6-2.1-6.3
		c-1.3-1.3-3-2.1-4.8-2.2l1.2,1.2c2.2,2.2,2.2,5.9,0,8.1c-1.1,1.1-2.5,1.7-4.1,1.7c-1.5,0-3-0.6-4-1.7l-1.2-1.2
		c0.1,1.8,0.9,3.5,2.2,4.8c1.7,1.7,4,2.5,6.3,2.1c0.2,0,0.4,0,0.5,0c1.1,0,2.2,0.4,2.9,1.2l12.5,12.5c1.2,1.2,3.2,1.1,4.3-0.1
		C47,52.1,46.9,50.2,45.7,49z M44.2,51.7C44,51.9,43.7,52,43.4,52s-0.5-0.1-0.7-0.3l-0.9-0.9c-0.4-0.4-0.4-1.1,0-1.5s1.1-0.4,1.5,0
		l0.9,0.9C44.6,50.6,44.6,51.3,44.2,51.7z M45.7,49L33.4,36.7c-0.9-0.9-1.3-2.2-1.2-3.5c0.3-2.3-0.5-4.6-2.1-6.3
		c-1.3-1.3-3-2.1-4.8-2.2l1.2,1.2c2.2,2.2,2.2,5.9,0,8.1c-1.1,1.1-2.5,1.7-4.1,1.7c-1.5,0-3-0.6-4-1.7l-1.2-1.2
		c0.1,1.8,0.9,3.5,2.2,4.8c1.7,1.7,4,2.5,6.3,2.1c0.2,0,0.4,0,0.5,0c1.1,0,2.2,0.4,2.9,1.2l12.5,12.5c1.2,1.2,3.2,1.1,4.3-0.1
		C47,52.1,46.9,50.2,45.7,49z M44.2,51.7C44,51.9,43.7,52,43.4,52s-0.5-0.1-0.7-0.3l-0.9-0.9c-0.4-0.4-0.4-1.1,0-1.5s1.1-0.4,1.5,0
		l0.9,0.9C44.6,50.6,44.6,51.3,44.2,51.7z M53.9,2.5h-2.3c-1.2,0-2.2,1-2.2,2.2v6.7c0,0.1,0,0.1,0,0.2l6.8,6.8V4.7
		C56.2,3.5,55.2,2.5,53.9,2.5z"/><path fill="#FAFAFA" d="M60.5,61.9h-2.8V32.6c0-0.1,0-0.2,0.1-0.3L32,6.6L6.3,32.3c0,0.1,0.1,0.2,0.1,0.3v29.3H4.5
		c-0.6,0-1.1,0.5-1.1,1.1c0.1,0.5,0.6,1,1.1,1h56c0.6,0,1.1-0.5,1.1-1.1C61.6,62.4,61.1,61.9,60.5,61.9z M15,31.6
		c0.1-0.9,0.8-1.6,1.7-1.6c0.4,0,0.9,0.2,1.2,0.5l1.9,1.9c1.4,1.4,3.7,1.4,5.1,0c1.4-1.4,1.4-3.7,0-5.1L23,25.4
		c-0.5-0.5-0.6-1.2-0.4-1.8c0.2-0.6,0.8-1,1.5-1.1c2.8-0.2,5.5,0.8,7.4,2.8c2.1,2.1,3.1,5.1,2.8,8.1c-0.1,0.6,0.1,1.3,0.6,1.7
		l12.3,12.3c2,2,2.1,5.2,0.2,7.2c-1,1-2.3,1.6-3.7,1.6s-2.6-0.5-3.6-1.5L27.7,42.4c-0.5-0.5-1.1-0.7-1.7-0.6c-3,0.4-6-0.6-8.1-2.8
		C15.9,37.1,14.9,34.4,15,31.6z"/></svg>