<?xml version="1.0" encoding="utf-8"?>
<!-- Svg Vector Icons : http://www.onlinewebfonts.com/icon -->
<!DOCTYPE svg PUBLIC "-//W3C//DTD SVG 1.1//EN" "http://www.w3.org/Graphics/SVG/1.1/DTD/svg11.dtd">
<svg fill="#FAFAFA" version="1.1" xmlns="http://www.w3.org/2000/svg" xmlns:xlink="http://www.w3.org/1999/xlink" x="0px" y="0px" viewBox="0 0 1000 1000" enable-background="new 0 0 1000 1000" xml:space="preserve">
<metadata> Svg Vector Icons : http://www.onlinewebfonts.com/icon </metadata>
<g><g transform="translate(0.000000,394.000000) scale(0.100000,-0.100000)"><path d="M4498.2,3826.1c-460.1-50-1055.3-207.6-1482.9-395.1C1932.4,2955.9,999.7,2028.1,529.5,960.3C407,685.2,236.9,192.6,256.9,172.6c15-12.5,1522.9-430.1,1530.4-422.6c2.5,2.5,40,110,82.5,240.1c372.6,1115.3,1315.4,1948.1,2490.7,2193.1c312.6,65,985.3,65,1287.9,0c532.7-115,1060.3-370.1,1475.4-715.2l62.5-50l-300.1,15c-275.1,15-310.1,12.5-405.1-35c-350.1-180.1-417.6-690.2-125-947.8c50-45,135-92.5,185.1-105c52.5-15,640.2-80,1307.9-142.5c1310.4-125,1337.9-125,1505.4-2.5c105,77.5,195,240.1,210,382.6c10,85-47.5,525.2-187.6,1435.4C9264.5,2740.8,9162,3366,9149.5,3406c-15,42.5-60,117.5-100,167.6c-232.6,280.1-697.7,255.1-900.3-50c-95-145.1-110-270.1-67.5-542.7c20-122.5,32.5-227.6,30-232.6c-2.5-5-95,60-202.6,140c-660.2,495.2-1437.9,807.7-2280.6,917.8C5373.4,3841.1,4730.7,3851.1,4498.2,3826.1z"/><path d="M8141.7-2063.1c-255.1-815.2-882.8-1550.4-1653-1938c-802.7-402.6-1768-467.6-2590.8-170.1c-355.1,130.1-735.2,347.6-1025.3,587.7l-62.5,50l300.1-15c275.1-15,310.1-12.5,405.1,35c352.6,180,415.1,692.7,117.5,952.8c-45,42.5-127.5,87.5-177.6,100c-140,40-2480.7,257.6-2590.7,245.1c-212.6-27.5-405.1-245.1-432.6-482.6c-10-85,47.5-525.2,187.6-1435.4c112.5-722.7,215.1-1347.9,227.6-1387.9c15-42.5,60-117.5,100-167.5c215.1-260.1,620.2-262.6,852.7-5c135,152.5,162.5,282.6,117.5,580.2c-22.5,132.6-35,245.1-32.5,250.1c2.5,5,95-60,202.6-140c1725.5-1290.4,4156.2-1272.9,5881.7,42.5c812.7,617.7,1465.4,1560.4,1725.5,2495.7l50,180.1l-77.5,25c-45,15-372.6,105-730.2,202.6c-357.6,97.5-667.7,182.5-690.2,190.1C8214.2-1858,8191.8-1900.6,8141.7-2063.1z"/></g></g>
</svg>