<?xml version="1.0" encoding="iso-8859-1"?>
<!-- Generator: Adobe Illustrator 17.1.0, SVG Export Plug-In . SVG Version: 6.00 Build 0)  -->
<!DOCTYPE svg PUBLIC "-//W3C//DTD SVG 1.1//EN" "http://www.w3.org/Graphics/SVG/1.1/DTD/svg11.dtd">
<svg version="1.1" id="Capa_1" xmlns="http://www.w3.org/2000/svg" xmlns:xlink="http://www.w3.org/1999/xlink" x="0px" y="0px"
	 fill="#FAFAFA" viewBox="0 0 280 280" style="enable-background:new 0 0 280 280;" xml:space="preserve">
<path d="M280,25c0-13.807-11.193-25-25-25H25C11.193,0,0,11.193,0,25v230c0,13.807,11.193,25,25,25h230c13.807,0,25-11.193,25-25V25
	z M88,202.238c0,8.284-6.716,15-15,15s-15-6.716-15-15V77.273c0-8.284,6.716-15,15-15s15,6.716,15,15V202.238z M226,193.548
	c0,12.1-8.161,16.577-18.285,9.949l-78.88-51.685c-10.123-6.628-10.093-17.474,0.03-24.103l78.836-51.693
	C217.824,69.387,226,73.864,226,85.964V193.548z"/>
<g>
</g>
<g>
</g>
<g>
</g>
<g>
</g>
<g>
</g>
<g>
</g>
<g>
</g>
<g>
</g>
<g>
</g>
<g>
</g>
<g>
</g>
<g>
</g>
<g>
</g>
<g>
</g>
<g>
</g>
</svg>
