<?xml version="1.0" encoding="iso-8859-1"?>
<!-- Generator: Adobe Illustrator 17.1.0, SVG Export Plug-In . SVG Version: 6.00 Build 0)  -->
<!DOCTYPE svg PUBLIC "-//W3C//DTD SVG 1.1//EN" "http://www.w3.org/Graphics/SVG/1.1/DTD/svg11.dtd">
<svg version="1.1" id="Capa_1" xmlns="http://www.w3.org/2000/svg" xmlns:xlink="http://www.w3.org/1999/xlink" x="0px" y="0px"
	  fill="#FAFAFA" viewBox="0 0 196.652 196.652" style="enable-background:new 0 0 196.652 196.652;" xml:space="preserve">
<path d="M56.32,36.288c0-2.762,2.239-5,5-5h70.224c2.761,0,5,2.238,5,5s-2.239,5-5,5H61.32C58.559,41.288,56.32,39.049,56.32,36.288
	z M196.652,74.323v89.868c0,11.569-9.379,20.948-20.948,20.948H20.948C9.379,185.139,0,175.76,0,164.191V74.323
	c0-11.569,9.379-20.948,20.948-20.948h15.521V25.303c0-7.603,6.186-13.79,13.79-13.79h94.269c7.604,0,13.79,6.187,13.79,13.79
	v28.072h17.387C187.274,53.375,196.652,62.754,196.652,74.323z M181.504,161.299l-62.756-40.843l62.91-44.365
	c2.257-1.591,2.796-4.711,1.205-6.968c-1.59-2.256-4.71-2.797-6.967-1.204l-27.578,19.448V69.915v-1.058V25.303
	c0-2.09-1.7-3.79-3.79-3.79H50.259c-2.089,0-3.79,1.7-3.79,3.79v42.885h0v18.005l-25.517-17.92c-2.26-1.588-5.378-1.041-6.965,1.218
	c-1.587,2.261-1.042,5.379,1.218,6.966l63.231,44.406l-63.085,41.057c-2.314,1.506-2.969,4.604-1.463,6.918
	c0.958,1.473,2.56,2.273,4.195,2.273c0.935,0,1.88-0.263,2.723-0.811l66.246-43.114c0.066-0.043,0.117-0.1,0.181-0.146l2.816,1.978
	c2.478,1.74,5.378,2.609,8.28,2.609c2.91,0,5.821-0.875,8.302-2.626l3.319-2.34l66.1,43.019c0.842,0.548,1.788,0.811,2.723,0.811
	c1.635,0,3.237-0.801,4.195-2.273C184.473,165.903,183.818,162.805,181.504,161.299z M61.32,63.645h70.224c2.761,0,5-2.238,5-5
	c0-2.762-2.239-5-5-5H61.32c-2.761,0-5,2.238-5,5C56.32,61.407,58.559,63.645,61.32,63.645z M61.32,86.003h70.224
	c2.761,0,5-2.238,5-5c0-2.762-2.239-5-5-5H61.32c-2.761,0-5,2.238-5,5C56.32,83.765,58.559,86.003,61.32,86.003z"/>
<g>
</g>
<g>
</g>
<g>
</g>
<g>
</g>
<g>
</g>
<g>
</g>
<g>
</g>
<g>
</g>
<g>
</g>
<g>
</g>
<g>
</g>
<g>
</g>
<g>
</g>
<g>
</g>
<g>
</g>
</svg>
